<?xml version="1.0" encoding="UTF-8"?>
<svg id="Layer_1" xmlns="http://www.w3.org/2000/svg" version="1.1" viewBox="0 0 775.38 490.93">
  <!-- Generator: Adobe Illustrator 29.0.0, SVG Export Plug-In . SVG Version: 2.1.0 Build 186)  -->
  <defs>
    <style>
      .st0 {
        fill: #fff;
      }

      .st1 {
        fill: #bb674c;
      }

      .st2 {
        fill: #3d4357;
      }
    </style>
  </defs>
  <g>
    <g>
      <path class="st1" d="M3.98,375.47c2.65-4.65,6.28-8.27,10.87-10.87,4.59-2.6,9.74-3.89,15.45-3.89,6.68,0,12.53,1.71,17.55,5.14,5.02,3.42,8.53,8.16,10.53,14.21h-13.78c-1.37-2.85-3.3-4.99-5.78-6.42-2.48-1.43-5.35-2.14-8.6-2.14-3.48,0-6.58.81-9.29,2.44-2.71,1.63-4.82,3.92-6.33,6.89-1.51,2.97-2.27,6.45-2.27,10.44s.76,7.4,2.27,10.4c1.51,3,3.62,5.31,6.33,6.93,2.71,1.63,5.81,2.44,9.29,2.44,3.25,0,6.12-.73,8.6-2.18,2.48-1.45,4.41-3.61,5.78-6.46h13.78c-2,6.11-5.49,10.86-10.49,14.25-4.99,3.4-10.86,5.09-17.59,5.09-5.71,0-10.86-1.3-15.45-3.89-4.59-2.6-8.22-6.21-10.87-10.83-2.65-4.62-3.98-9.87-3.98-15.75s1.33-11.14,3.98-15.79Z"/>
      <path class="st1" d="M110.34,401.11h-34.67c.28,3.42,1.48,6.11,3.6,8.05,2.11,1.94,4.71,2.91,7.79,2.91,4.45,0,7.62-1.91,9.5-5.74h12.93c-1.37,4.57-4,8.32-7.88,11.26-3.88,2.94-8.65,4.41-14.3,4.41-4.57,0-8.66-1.01-12.28-3.04-3.63-2.03-6.45-4.89-8.48-8.6-2.03-3.71-3.04-7.99-3.04-12.84s1-9.22,3-12.93c2-3.71,4.79-6.56,8.39-8.56,3.59-2,7.73-3,12.41-3s8.55.97,12.11,2.91c3.57,1.94,6.33,4.69,8.3,8.26,1.97,3.57,2.95,7.66,2.95,12.28,0,1.71-.12,3.25-.34,4.62ZM98.27,393.07c-.06-3.08-1.17-5.55-3.34-7.4-2.17-1.85-4.82-2.78-7.96-2.78-2.97,0-5.47.9-7.49,2.7-2.03,1.8-3.27,4.29-3.72,7.49h22.51Z"/>
      <path class="st1" d="M157.34,378.47c3.48,3.57,5.22,8.55,5.22,14.94v27.82h-11.99v-26.19c0-3.77-.94-6.66-2.82-8.69-1.88-2.03-4.45-3.04-7.7-3.04s-5.92,1.01-7.83,3.04c-1.91,2.03-2.87,4.92-2.87,8.69v26.19h-11.98v-47.42h11.98v5.91c1.6-2.05,3.64-3.67,6.12-4.84,2.48-1.17,5.21-1.76,8.18-1.76,5.65,0,10.22,1.78,13.7,5.35Z"/>
      <path class="st1" d="M185.84,383.65v22.94c0,1.6.39,2.75,1.16,3.47.77.71,2.07,1.07,3.89,1.07h5.56v10.1h-7.53c-10.1,0-15.15-4.91-15.15-14.72v-22.86h-5.65v-9.84h5.65v-11.73h12.07v11.73h10.62v9.84h-10.62Z"/>
      <path class="st1" d="M221.07,375.26c2.48-1.43,5.32-2.14,8.52-2.14v12.58h-3.17c-3.77,0-6.61.89-8.52,2.65-1.91,1.77-2.87,4.85-2.87,9.25v23.63h-11.98v-47.42h11.98v7.36c1.54-2.51,3.55-4.48,6.03-5.91Z"/>
      <path class="st1" d="M235.36,384.59c1.91-3.71,4.51-6.56,7.79-8.56,3.28-2,6.95-3,11-3,3.54,0,6.63.71,9.29,2.14,2.65,1.43,4.78,3.23,6.38,5.39v-6.76h12.07v47.42h-12.07v-6.93c-1.54,2.23-3.67,4.07-6.38,5.52-2.71,1.46-5.84,2.18-9.37,2.18-4,0-7.63-1.03-10.91-3.08-3.28-2.05-5.88-4.95-7.79-8.69-1.91-3.74-2.87-8.03-2.87-12.88s.95-9.05,2.87-12.76ZM268.1,390.03c-1.14-2.08-2.68-3.68-4.62-4.79-1.94-1.11-4.02-1.67-6.25-1.67s-4.28.54-6.16,1.63c-1.88,1.08-3.41,2.67-4.58,4.75-1.17,2.08-1.75,4.55-1.75,7.4s.58,5.35,1.75,7.49c1.17,2.14,2.71,3.78,4.62,4.92,1.91,1.14,3.95,1.71,6.12,1.71s4.31-.56,6.25-1.67c1.94-1.11,3.48-2.71,4.62-4.79,1.14-2.08,1.71-4.58,1.71-7.49s-.57-5.41-1.71-7.49Z"/>
      <path class="st1" d="M303.54,357.88v63.35h-11.98v-63.35h11.98Z"/>
      <path class="st1" d="M357.05,401.11h-34.67c.28,3.42,1.48,6.11,3.6,8.05,2.11,1.94,4.71,2.91,7.79,2.91,4.45,0,7.62-1.91,9.5-5.74h12.93c-1.37,4.57-4,8.32-7.88,11.26-3.88,2.94-8.65,4.41-14.3,4.41-4.57,0-8.66-1.01-12.28-3.04-3.63-2.03-6.45-4.89-8.48-8.6-2.03-3.71-3.04-7.99-3.04-12.84s1-9.22,3-12.93c2-3.71,4.79-6.56,8.39-8.56,3.59-2,7.73-3,12.41-3s8.55.97,12.11,2.91c3.57,1.94,6.33,4.69,8.3,8.26,1.97,3.57,2.95,7.66,2.95,12.28,0,1.71-.12,3.25-.34,4.62ZM344.98,393.07c-.06-3.08-1.17-5.55-3.34-7.4-2.17-1.85-4.82-2.78-7.96-2.78-2.97,0-5.47.9-7.49,2.7-2.03,1.8-3.27,4.29-3.72,7.49h22.51Z"/>
      <path class="st1" d="M382.17,384.59c1.91-3.71,4.52-6.56,7.83-8.56,3.31-2,6.99-3,11.04-3,3.08,0,6.02.67,8.82,2.01,2.8,1.34,5.02,3.12,6.68,5.35v-22.51h12.16v63.35h-12.16v-7.02c-1.49,2.34-3.57,4.22-6.25,5.65-2.68,1.43-5.79,2.14-9.33,2.14-4,0-7.65-1.03-10.96-3.08-3.31-2.05-5.92-4.95-7.83-8.69-1.91-3.74-2.87-8.03-2.87-12.88s.95-9.05,2.87-12.76ZM414.91,390.03c-1.14-2.08-2.68-3.68-4.62-4.79-1.94-1.11-4.02-1.67-6.25-1.67s-4.28.54-6.16,1.63c-1.88,1.08-3.41,2.67-4.58,4.75-1.17,2.08-1.75,4.55-1.75,7.4s.58,5.35,1.75,7.49c1.17,2.14,2.71,3.78,4.62,4.92,1.91,1.14,3.95,1.71,6.12,1.71s4.31-.56,6.25-1.67c1.94-1.11,3.48-2.71,4.62-4.79,1.14-2.08,1.71-4.58,1.71-7.49s-.57-5.41-1.71-7.49Z"/>
      <path class="st1" d="M482.11,401.11h-34.67c.28,3.42,1.48,6.11,3.6,8.05,2.11,1.94,4.71,2.91,7.79,2.91,4.45,0,7.62-1.91,9.5-5.74h12.93c-1.37,4.57-4,8.32-7.88,11.26-3.88,2.94-8.65,4.41-14.3,4.41-4.57,0-8.66-1.01-12.28-3.04-3.63-2.03-6.45-4.89-8.48-8.6-2.03-3.71-3.04-7.99-3.04-12.84s1-9.22,3-12.93c2-3.71,4.79-6.56,8.39-8.56,3.59-2,7.73-3,12.41-3s8.55.97,12.11,2.91c3.57,1.94,6.33,4.69,8.3,8.26,1.97,3.57,2.95,7.66,2.95,12.28,0,1.71-.12,3.25-.34,4.62ZM470.04,393.07c-.06-3.08-1.17-5.55-3.34-7.4-2.17-1.85-4.82-2.78-7.96-2.78-2.97,0-5.47.9-7.49,2.7-2.03,1.8-3.27,4.29-3.72,7.49h22.51Z"/>
      <path class="st1" d="M496.83,419.9c-3.08-1.4-5.52-3.3-7.32-5.69s-2.78-5.05-2.95-7.96h12.07c.23,1.83,1.13,3.34,2.7,4.54,1.57,1.2,3.52,1.8,5.86,1.8s4.07-.46,5.35-1.37c1.28-.91,1.93-2.08,1.93-3.51,0-1.54-.79-2.7-2.35-3.47-1.57-.77-4.07-1.61-7.49-2.53-3.54-.86-6.43-1.74-8.69-2.65-2.25-.91-4.19-2.31-5.82-4.19-1.63-1.88-2.44-4.42-2.44-7.62,0-2.62.76-5.02,2.27-7.19,1.51-2.17,3.68-3.88,6.51-5.14,2.82-1.25,6.15-1.88,9.97-1.88,5.65,0,10.16,1.41,13.53,4.24,3.37,2.83,5.22,6.63,5.56,11.43h-11.47c-.17-1.88-.96-3.38-2.35-4.49-1.4-1.11-3.27-1.67-5.61-1.67-2.17,0-3.84.4-5.01,1.2-1.17.8-1.75,1.91-1.75,3.34,0,1.6.8,2.81,2.4,3.64,1.6.83,4.08,1.67,7.45,2.53,3.42.86,6.25,1.74,8.48,2.65,2.23.91,4.15,2.33,5.78,4.24,1.63,1.91,2.47,4.44,2.53,7.58,0,2.74-.76,5.19-2.27,7.36-1.51,2.17-3.68,3.87-6.51,5.09-2.83,1.23-6.12,1.84-9.89,1.84s-7.36-.7-10.44-2.1Z"/>
      <path class="st1" d="M582.86,421.23l-13.18-23.28h-5.65v23.28h-11.98v-59.75h22.43c4.62,0,8.56.81,11.81,2.44,3.25,1.63,5.69,3.82,7.32,6.59,1.63,2.77,2.44,5.86,2.44,9.29,0,3.94-1.14,7.49-3.42,10.66-2.28,3.17-5.68,5.35-10.19,6.55l14.3,24.23h-13.87ZM564.03,388.96h10.02c3.25,0,5.68-.78,7.28-2.35,1.6-1.57,2.4-3.75,2.4-6.55s-.8-4.86-2.4-6.38c-1.6-1.51-4.02-2.27-7.28-2.27h-10.02v17.55Z"/>
      <path class="st1" d="M605.67,366.14c-1.4-1.34-2.1-3.01-2.1-5.01s.7-3.67,2.1-5.01c1.4-1.34,3.15-2.01,5.26-2.01s3.87.67,5.26,2.01c1.4,1.34,2.1,3.01,2.1,5.01s-.7,3.67-2.1,5.01c-1.4,1.34-3.15,2.01-5.26,2.01s-3.87-.67-5.26-2.01ZM616.85,373.81v47.42h-11.98v-47.42h11.98Z"/>
      <path class="st1" d="M626.39,384.59c1.91-3.71,4.51-6.56,7.79-8.56,3.28-2,6.95-3,11-3,3.54,0,6.63.71,9.29,2.14,2.65,1.43,4.78,3.23,6.38,5.39v-6.76h12.07v47.42h-12.07v-6.93c-1.54,2.23-3.67,4.07-6.38,5.52-2.71,1.46-5.84,2.18-9.37,2.18-4,0-7.63-1.03-10.91-3.08-3.28-2.05-5.88-4.95-7.79-8.69-1.91-3.74-2.87-8.03-2.87-12.88s.95-9.05,2.87-12.76ZM659.13,390.03c-1.14-2.08-2.68-3.68-4.62-4.79-1.94-1.11-4.02-1.67-6.25-1.67s-4.28.54-6.16,1.63c-1.88,1.08-3.41,2.67-4.58,4.75-1.17,2.08-1.75,4.55-1.75,7.4s.58,5.35,1.75,7.49c1.17,2.14,2.71,3.78,4.62,4.92,1.91,1.14,3.95,1.71,6.12,1.71s4.31-.56,6.25-1.67c1.94-1.11,3.48-2.71,4.62-4.79,1.14-2.08,1.71-4.58,1.71-7.49s-.57-5.41-1.71-7.49Z"/>
      <path class="st1" d="M682.37,384.59c1.91-3.71,4.52-6.56,7.83-8.56,3.31-2,6.99-3,11.04-3,3.08,0,6.02.67,8.82,2.01,2.8,1.34,5.02,3.12,6.68,5.35v-22.51h12.16v63.35h-12.16v-7.02c-1.49,2.34-3.57,4.22-6.25,5.65-2.68,1.43-5.79,2.14-9.33,2.14-4,0-7.65-1.03-10.96-3.08-3.31-2.05-5.92-4.95-7.83-8.69-1.91-3.74-2.87-8.03-2.87-12.88s.95-9.05,2.87-12.76ZM715.12,390.03c-1.14-2.08-2.68-3.68-4.62-4.79-1.94-1.11-4.02-1.67-6.25-1.67s-4.28.54-6.16,1.63c-1.88,1.08-3.41,2.67-4.58,4.75-1.17,2.08-1.75,4.55-1.75,7.4s.58,5.35,1.75,7.49c1.17,2.14,2.71,3.78,4.62,4.92,1.91,1.14,3.95,1.71,6.12,1.71s4.31-.56,6.25-1.67c1.94-1.11,3.48-2.71,4.62-4.79,1.14-2.08,1.71-4.58,1.71-7.49s-.57-5.41-1.71-7.49Z"/>
      <path class="st1" d="M746.28,419.9c-3.08-1.4-5.52-3.3-7.32-5.69s-2.78-5.05-2.95-7.96h12.07c.23,1.83,1.13,3.34,2.7,4.54,1.57,1.2,3.52,1.8,5.86,1.8s4.07-.46,5.35-1.37c1.28-.91,1.93-2.08,1.93-3.51,0-1.54-.79-2.7-2.35-3.47-1.57-.77-4.07-1.61-7.49-2.53-3.54-.86-6.43-1.74-8.69-2.65-2.25-.91-4.19-2.31-5.82-4.19-1.63-1.88-2.44-4.42-2.44-7.62,0-2.62.76-5.02,2.27-7.19,1.51-2.17,3.68-3.88,6.51-5.14,2.82-1.25,6.15-1.88,9.97-1.88,5.65,0,10.16,1.41,13.53,4.24,3.37,2.83,5.22,6.63,5.56,11.43h-11.47c-.17-1.88-.96-3.38-2.35-4.49-1.4-1.11-3.27-1.67-5.61-1.67-2.17,0-3.84.4-5.01,1.2-1.17.8-1.75,1.91-1.75,3.34,0,1.6.8,2.81,2.4,3.64,1.6.83,4.08,1.67,7.45,2.53,3.42.86,6.25,1.74,8.48,2.65,2.23.91,4.15,2.33,5.78,4.24,1.63,1.91,2.47,4.44,2.53,7.58,0,2.74-.76,5.19-2.27,7.36-1.51,2.17-3.68,3.87-6.51,5.09-2.83,1.23-6.12,1.84-9.89,1.84s-7.36-.7-10.44-2.1Z"/>
    </g>
    <g>
      <path class="st2" d="M1.35,480.73v-35.15h3.48v35.15H1.35ZM3.5,465.88v-3.24h11.98c1.98,0,3.57-.63,4.76-1.9,1.19-1.26,1.8-2.94,1.81-5.01,0-2.08-.6-3.75-1.79-5.01-1.19-1.26-2.79-1.9-4.78-1.9H3.5v-3.24h11.79c2.04,0,3.83.42,5.36,1.27,1.53.85,2.72,2.03,3.56,3.54.85,1.51,1.27,3.29,1.27,5.34s-.43,3.8-1.28,5.33c-.85,1.52-2.04,2.71-3.56,3.55-1.52.85-3.31,1.27-5.35,1.27H3.5ZM22.8,480.73l-8.04-15.94,3.21-1.11,8.99,17.06h-4.16Z"/>
      <path class="st2" d="M42.42,481.1c-3.49,0-6.2-.98-8.12-2.94-1.92-1.96-2.87-4.72-2.87-8.3v-2.83c0-3.74.92-6.63,2.77-8.67,1.84-2.05,4.44-3.07,7.79-3.07,3.16,0,5.6,1.01,7.33,3.02,1.73,2.01,2.6,4.86,2.6,8.53v2.87h-18.12v-3.14h14.88v-.24c0-2.48-.58-4.4-1.75-5.76-1.17-1.36-2.81-2.04-4.94-2.04-2.34,0-4.14.72-5.41,2.15-1.27,1.43-1.91,3.46-1.91,6.09v3.19c0,2.51.68,4.46,2.03,5.83,1.35,1.38,3.26,2.07,5.73,2.07,1.16,0,2.31-.24,3.44-.72,1.14-.48,2.15-1.17,3.03-2.05l2.37,2.27c-1.22,1.19-2.61,2.11-4.16,2.77-1.55.65-3.11.98-4.69.98ZM41.75,450.83l-2.13-1.69,6.91-8.58,2.58,2.15-7.37,8.12Z"/>
      <path class="st2" d="M67.3,481.1c-2.05,0-3.97-.3-5.79-.91-1.81-.6-3.36-1.45-4.65-2.52l2.01-2.44c1.37.92,2.79,1.63,4.25,2.14,1.46.51,2.86.76,4.18.76,2.4,0,4.26-.41,5.57-1.23,1.31-.82,1.97-1.98,1.97-3.48,0-1.26-.4-2.15-1.18-2.68-.79-.53-1.82-.88-3.1-1.04-1.28-.16-2.65-.3-4.09-.41-1.01-.08-2.02-.21-3.02-.37-1-.17-1.91-.46-2.73-.88-.82-.42-1.48-1.03-1.97-1.85-.49-.81-.74-1.91-.74-3.3,0-2.42.87-4.28,2.62-5.6,1.75-1.32,4.22-1.98,7.4-1.98,1.66,0,3.29.24,4.89.72,1.6.48,3.04,1.16,4.31,2.03l-2.01,2.39c-1.19-.69-2.43-1.23-3.71-1.61-1.28-.38-2.49-.57-3.64-.57-2.11,0-3.74.4-4.9,1.18s-1.74,1.9-1.74,3.33c0,1.1.36,1.88,1.08,2.36.72.48,1.65.79,2.81.93,1.16.15,2.42.26,3.79.34,1.05.07,2.11.18,3.18.34,1.07.16,2.06.47,2.96.92.9.45,1.63,1.13,2.17,2.04.55.91.82,2.15.82,3.71,0,2.43-.94,4.32-2.81,5.67s-4.52,2.02-7.94,2.02Z"/>
      <path class="st2" d="M94.6,481.1c-3.49,0-6.2-.98-8.12-2.94-1.92-1.96-2.87-4.72-2.87-8.3v-2.83c0-3.74.92-6.63,2.77-8.67,1.84-2.05,4.44-3.07,7.79-3.07,3.16,0,5.6,1.01,7.33,3.02,1.73,2.01,2.6,4.86,2.6,8.53v2.87h-18.12v-3.14h14.88v-.24c0-2.48-.58-4.4-1.75-5.76-1.17-1.36-2.81-2.04-4.94-2.04-2.34,0-4.14.72-5.41,2.15-1.27,1.43-1.91,3.46-1.91,6.09v3.19c0,2.51.68,4.46,2.03,5.83,1.35,1.38,3.26,2.07,5.73,2.07,1.16,0,2.31-.24,3.44-.72,1.14-.48,2.15-1.17,3.03-2.05l2.37,2.27c-1.22,1.19-2.61,2.11-4.16,2.77-1.55.65-3.11.98-4.69.98Z"/>
      <path class="st2" d="M110.86,480.73v-25.08h3.48v25.08h-3.48ZM125.62,460.15c-.52-.53-1.16-.93-1.94-1.21-.78-.27-1.69-.41-2.72-.41-2.11,0-3.74.56-4.89,1.69s-1.73,2.67-1.73,4.64l-.51-4.83c.92-1.48,2.12-2.64,3.6-3.48,1.48-.84,3.12-1.26,4.9-1.26,1.14,0,2.18.17,3.1.5.93.33,1.73.82,2.43,1.46l-2.25,2.9Z"/>
      <path class="st2" d="M140.6,476.22l7.59-20.56h3.7l-9.9,25.08h-2.75l-9.91-25.08h3.7l7.59,20.56Z"/>
      <path class="st2" d="M166.5,481.1c-3.49,0-6.2-.98-8.12-2.94-1.92-1.96-2.87-4.72-2.87-8.3v-2.83c0-3.74.92-6.63,2.77-8.67,1.84-2.05,4.44-3.07,7.79-3.07,3.16,0,5.6,1.01,7.33,3.02,1.73,2.01,2.6,4.86,2.6,8.53v2.87h-18.12v-3.14h14.88v-.24c0-2.48-.58-4.4-1.75-5.76-1.17-1.36-2.81-2.04-4.94-2.04-2.34,0-4.14.72-5.41,2.15-1.27,1.43-1.91,3.46-1.91,6.09v3.19c0,2.51.68,4.46,2.03,5.83,1.35,1.38,3.26,2.07,5.73,2.07,1.16,0,2.31-.24,3.44-.72,1.14-.48,2.15-1.17,3.03-2.05l2.37,2.27c-1.22,1.19-2.61,2.11-4.16,2.77-1.55.65-3.11.98-4.69.98Z"/>
      <path class="st2" d="M200.05,455.66v2.71l-13.5,19.25h14.16v3.12h-18.67v-2.8l13.82-19.16h-13.48v-3.12h17.68Z"/>
      <path class="st2" d="M230.78,481.1c-3.49,0-6.2-.98-8.12-2.94-1.92-1.96-2.87-4.72-2.87-8.3v-2.83c0-3.74.92-6.63,2.77-8.67,1.84-2.05,4.44-3.07,7.79-3.07,3.16,0,5.6,1.01,7.33,3.02,1.73,2.01,2.6,4.86,2.6,8.53v2.87h-18.12v-3.14h14.88v-.24c0-2.48-.58-4.4-1.75-5.76-1.17-1.36-2.81-2.04-4.94-2.04-2.34,0-4.14.72-5.41,2.15-1.27,1.43-1.91,3.46-1.91,6.09v3.19c0,2.51.68,4.46,2.03,5.83,1.35,1.38,3.26,2.07,5.73,2.07,1.16,0,2.31-.24,3.44-.72,1.14-.48,2.15-1.17,3.03-2.05l2.37,2.27c-1.22,1.19-2.61,2.11-4.16,2.77-1.55.65-3.11.98-4.69.98Z"/>
      <path class="st2" d="M247.04,480.73v-25.08h3.48v25.08h-3.48ZM263.71,480.73v-15.2c0-2.22-.58-3.95-1.75-5.17-1.17-1.22-2.81-1.84-4.94-1.84s-3.66.54-4.8,1.63-1.7,2.63-1.7,4.63l-.51-4.83c.93-1.72,2.15-2.93,3.66-3.62s3.16-1.04,4.96-1.04c2.72,0,4.83.89,6.32,2.67s2.23,4.3,2.23,7.55v15.22h-3.48Z"/>
      <path class="st2" d="M295.91,481.1c-2.75,0-4.89-.89-6.4-2.66-1.51-1.77-2.27-4.26-2.27-7.46v-5.46c0-3.25.74-5.77,2.21-7.55s3.55-2.67,6.22-2.67c1.8,0,3.45.34,4.93,1.01,1.48.68,2.67,1.87,3.58,3.58l-.51,4.83c0-1.08-.25-2.11-.75-3.08-.5-.97-1.22-1.78-2.17-2.4s-2.1-.94-3.45-.94c-2.09,0-3.71.63-4.86,1.9-1.14,1.26-1.72,3.05-1.72,5.35v5.44c0,2.26.57,4.01,1.72,5.25,1.14,1.25,2.76,1.87,4.86,1.87,1.35,0,2.5-.32,3.45-.97s1.68-1.47,2.17-2.48c.5-1.01.75-2.04.75-3.1l.34,5.24c-.66,1.61-1.69,2.73-3.1,3.36-1.41.63-3.07.94-4.99.94ZM303.67,480.73v-35.13h3.48v35.13h-3.48Z"/>
      <path class="st2" d="M315.36,449.09v-3.48h3.48v3.48h-3.48ZM315.36,480.73v-25.08h3.48v25.08h-3.48Z"/>
      <path class="st2" d="M327.05,480.73v-25.08h3.48v25.08h-3.48ZM341.81,460.15c-.52-.53-1.16-.93-1.94-1.21-.78-.27-1.69-.41-2.72-.41-2.11,0-3.74.56-4.89,1.69s-1.73,2.67-1.73,4.64l-.51-4.83c.92-1.48,2.12-2.64,3.6-3.48,1.48-.84,3.12-1.26,4.9-1.26,1.14,0,2.18.17,3.1.5.93.33,1.73.82,2.43,1.46l-2.25,2.9Z"/>
      <path class="st2" d="M357.95,481.1c-3.49,0-6.2-.98-8.12-2.94-1.92-1.96-2.87-4.72-2.87-8.3v-2.83c0-3.74.92-6.63,2.77-8.67,1.84-2.05,4.44-3.07,7.79-3.07,3.16,0,5.6,1.01,7.33,3.02,1.73,2.01,2.6,4.86,2.6,8.53v2.87h-18.12v-3.14h14.88v-.24c0-2.48-.58-4.4-1.75-5.76-1.17-1.36-2.81-2.04-4.94-2.04-2.34,0-4.14.72-5.41,2.15-1.27,1.43-1.91,3.46-1.91,6.09v3.19c0,2.51.68,4.46,2.03,5.83,1.35,1.38,3.26,2.07,5.73,2.07,1.16,0,2.31-.24,3.44-.72,1.14-.48,2.15-1.17,3.03-2.05l2.37,2.27c-1.22,1.19-2.61,2.11-4.16,2.77-1.55.65-3.11.98-4.69.98Z"/>
      <path class="st2" d="M384.33,481.1c-3.62,0-6.34-.91-8.14-2.72-1.8-1.81-2.71-4.54-2.71-8.18v-4.13c0-3.61.9-6.3,2.71-8.09,1.8-1.79,4.52-2.68,8.14-2.68,2.06,0,3.84.33,5.35,1,1.51.67,2.75,1.67,3.73,3.01l-2.58,2.3c-.85-1.03-1.82-1.8-2.89-2.31-1.07-.51-2.25-.76-3.54-.76-2.48,0-4.34.62-5.58,1.87-1.24,1.25-1.86,3.14-1.86,5.66v4.13c0,2.56.62,4.48,1.86,5.75,1.24,1.27,3.1,1.91,5.58,1.91,1.37,0,2.61-.24,3.73-.72,1.12-.48,2.13-1.22,3.03-2.2l2.25,2.22c-.98,1.32-2.23,2.31-3.73,2.96-1.51.65-3.29.98-5.35.98Z"/>
      <path class="st2" d="M396.92,458.65v-3h11.31v3h-11.31ZM405.37,480.85c-2.06,0-3.55-.57-4.48-1.72-.93-1.14-1.39-2.79-1.39-4.93v-25.85h3.48v25.9c0,1.06.24,1.89.72,2.48.48.59,1.2.88,2.15.88h2.37v3.24h-2.85Z"/>
      <path class="st2" d="M436.3,481.1c-2.93,0-5.2-.68-6.81-2.03-1.61-1.35-2.42-3.26-2.42-5.73s.74-4.2,2.22-5.5c1.48-1.3,3.56-1.94,6.23-1.94h8.33l.34,3.24h-8.65c-1.61,0-2.86.37-3.73,1.1-.88.73-1.32,1.77-1.32,3.1,0,1.42.55,2.52,1.65,3.3s2.66,1.17,4.67,1.17c2.16,0,3.83-.22,5.02-.65,1.19-.43,1.79-1.05,1.79-1.84l.51,3.29c-.5.53-1.14.98-1.92,1.35s-1.67.65-2.67.85c-1,.19-2.09.29-3.26.29ZM443.64,480.73v-15.9c0-2.03-.54-3.6-1.63-4.72-1.09-1.12-2.63-1.68-4.63-1.68-1.18,0-2.34.19-3.48.58-1.14.39-2.17.93-3.07,1.64l-2.54-1.74c.95-1.14,2.2-2.03,3.76-2.67s3.28-.95,5.18-.95c3.14,0,5.57.81,7.3,2.44s2.58,3.92,2.58,6.88v16.11h-3.48Z"/>
      <path class="st2" d="M458.09,455.66v15.24c0,2.21.57,3.92,1.72,5.13,1.14,1.22,2.76,1.82,4.86,1.82s3.68-.56,4.82-1.67c1.14-1.11,1.7-2.68,1.7-4.71l.34,5.24c-.55,1.13-1.51,2.14-2.87,3.03-1.37.89-3.16,1.34-5.36,1.34-2.77,0-4.91-.89-6.41-2.67-1.51-1.78-2.26-4.29-2.26-7.53v-15.24h3.48ZM471.18,480.73v-25.08h3.45v25.08h-3.45Z"/>
      <path class="st2" d="M495.41,480.73v-25.08h3.48v25.08h-3.48ZM511.12,480.73v-15.2c0-2.22-.53-3.95-1.58-5.17-1.06-1.22-2.56-1.84-4.51-1.84s-3.46.55-4.53,1.65-1.61,2.66-1.61,4.67l-.51-4.83c.87-1.75,2-2.98,3.4-3.68,1.39-.7,2.93-1.05,4.63-1.05,2.61,0,4.63.89,6.05,2.67s2.14,4.3,2.14,7.55v15.22h-3.48ZM526.82,480.73v-15.2c0-2.22-.53-3.95-1.59-5.17-1.06-1.22-2.56-1.84-4.49-1.84s-3.46.6-4.53,1.79c-1.07,1.19-1.61,2.87-1.61,5.02l-1.47-3.62c.81-2.04,1.92-3.63,3.33-4.75,1.42-1.12,3.15-1.68,5.19-1.68,2.75,0,4.88.89,6.39,2.67,1.51,1.78,2.26,4.3,2.26,7.55v15.22h-3.48Z"/>
      <path class="st2" d="M548.05,481.1c-3.49,0-6.2-.98-8.12-2.94-1.92-1.96-2.87-4.72-2.87-8.3v-2.83c0-3.74.92-6.63,2.77-8.67,1.84-2.05,4.44-3.07,7.79-3.07,3.16,0,5.6,1.01,7.33,3.02,1.73,2.01,2.6,4.86,2.6,8.53v2.87h-18.12v-3.14h14.88v-.24c0-2.48-.58-4.4-1.75-5.76-1.17-1.36-2.81-2.04-4.94-2.04-2.34,0-4.14.72-5.41,2.15-1.27,1.43-1.91,3.46-1.91,6.09v3.19c0,2.51.68,4.46,2.03,5.83,1.35,1.38,3.26,2.07,5.73,2.07,1.16,0,2.31-.24,3.44-.72,1.14-.48,2.15-1.17,3.03-2.05l2.37,2.27c-1.22,1.19-2.61,2.11-4.16,2.77-1.55.65-3.11.98-4.69.98Z"/>
      <path class="st2" d="M565.04,449.09v-3.48h3.48v3.48h-3.48ZM565.04,480.73v-25.08h3.48v25.08h-3.48Z"/>
      <path class="st2" d="M580.21,445.61v28.53c0,1.06.26,1.89.79,2.48.52.59,1.25.88,2.19.88h2.32v3.24h-2.9c-1.85,0-3.29-.58-4.32-1.74s-1.55-2.79-1.55-4.9v-28.48h3.48Z"/>
      <path class="st2" d="M594.53,445.61v28.53c0,1.06.26,1.89.79,2.48.52.59,1.25.88,2.19.88h2.32v3.24h-2.9c-1.85,0-3.29-.58-4.32-1.74s-1.55-2.79-1.55-4.9v-28.48h3.48Z"/>
      <path class="st2" d="M615.65,481.1c-3.49,0-6.2-.98-8.12-2.94-1.92-1.96-2.87-4.72-2.87-8.3v-2.83c0-3.74.92-6.63,2.77-8.67,1.84-2.05,4.44-3.07,7.79-3.07,3.16,0,5.6,1.01,7.33,3.02,1.73,2.01,2.6,4.86,2.6,8.53v2.87h-18.12v-3.14h14.88v-.24c0-2.48-.58-4.4-1.75-5.76-1.17-1.36-2.81-2.04-4.94-2.04-2.34,0-4.14.72-5.41,2.15-1.27,1.43-1.91,3.46-1.91,6.09v3.19c0,2.51.68,4.46,2.03,5.83,1.35,1.38,3.26,2.07,5.73,2.07,1.16,0,2.31-.24,3.44-.72,1.14-.48,2.15-1.17,3.03-2.05l2.37,2.27c-1.22,1.19-2.61,2.11-4.16,2.77-1.55.65-3.11.98-4.69.98Z"/>
      <path class="st2" d="M634.78,455.66v15.24c0,2.21.57,3.92,1.72,5.13,1.14,1.22,2.76,1.82,4.86,1.82s3.68-.56,4.82-1.67c1.14-1.11,1.7-2.68,1.7-4.71l.34,5.24c-.55,1.13-1.51,2.14-2.87,3.03-1.37.89-3.16,1.34-5.36,1.34-2.77,0-4.91-.89-6.41-2.67-1.51-1.78-2.26-4.29-2.26-7.53v-15.24h3.48ZM647.87,480.73v-25.08h3.45v25.08h-3.45Z"/>
      <path class="st2" d="M658.82,480.73v-25.08h3.48v25.08h-3.48ZM673.58,460.15c-.52-.53-1.16-.93-1.94-1.21-.78-.27-1.69-.41-2.72-.41-2.11,0-3.74.56-4.89,1.69s-1.73,2.67-1.73,4.64l-.51-4.83c.92-1.48,2.12-2.64,3.6-3.48,1.48-.84,3.12-1.26,4.9-1.26,1.14,0,2.18.17,3.1.5.93.33,1.73.82,2.43,1.46l-2.25,2.9Z"/>
      <path class="st2" d="M693.22,490.93v-35.27h3.48v35.27h-3.48ZM704.45,481.1c-1.9,0-3.56-.31-4.98-.94-1.42-.63-2.46-1.75-3.12-3.36l.34-5.24c0,1.06.25,2.1.75,3.1.5,1.01,1.22,1.83,2.17,2.48s2.1.97,3.45.97c2.09,0,3.71-.62,4.86-1.87,1.14-1.25,1.72-3,1.72-5.25v-5.44c0-2.3-.57-4.09-1.72-5.35-1.14-1.26-2.76-1.9-4.86-1.9-1.35,0-2.5.32-3.45.95s-1.68,1.44-2.17,2.43c-.5.98-.75,2-.75,3.04l-.51-4.83c.9-1.71,2.09-2.9,3.58-3.58,1.48-.68,3.12-1.01,4.93-1.01,2.69,0,4.77.89,6.23,2.67s2.2,4.3,2.2,7.55v5.46c0,3.21-.76,5.69-2.27,7.46-1.51,1.77-3.65,2.66-6.4,2.66Z"/>
      <path class="st2" d="M720.13,480.73v-25.08h3.48v25.08h-3.48ZM734.89,460.15c-.52-.53-1.16-.93-1.94-1.21-.78-.27-1.69-.41-2.72-.41-2.11,0-3.74.56-4.89,1.69s-1.73,2.67-1.73,4.64l-.51-4.83c.92-1.48,2.12-2.64,3.6-3.48,1.48-.84,3.12-1.26,4.9-1.26,1.14,0,2.18.17,3.1.5.93.33,1.73.82,2.43,1.46l-2.25,2.9Z"/>
      <path class="st2" d="M741.97,449.09v-3.48h3.48v3.48h-3.48ZM741.97,480.73v-25.08h3.48v25.08h-3.48Z"/>
      <path class="st2" d="M751.25,480.73l10.07-13.84,1.93,2.87-8.12,10.97h-3.89ZM769.92,480.73l-8.46-11.84-10.07-13.24h3.91l8.21,11.26,10.29,13.82h-3.89ZM763.93,469.19l-1.81-2.61,7.39-10.92h3.91l-9.49,13.53Z"/>
    </g>
  </g>
  <g>
    <g>
      <path class="st1" d="M296.05,191.58s.06-.02.08-.03v-.21c-.03.08-.06.16-.08.24Z"/>
      <path class="st1" d="M450.64,125.3c-.83-.06-1.65-.16-2.47-.28-1.66-.23-3.34-.33-5.02-.33-1.12,0-2.23.05-3.35.15-8.64.76-17.06,4.44-22.94,10.81-1.32-1.98-2.83-3.82-4.52-5.5,6.88-6.18,14.84-10.98,23.7-13.62.23-.05.46-.11.69-.17,1.58-.45,3.21-1.29,4.3-1.94,1.78-.97,3.46-2.14,5.02-3.47.25-.21.5-.43.75-.66,2.44-2.2,4.55-4.77,6.23-7.53.25-.42.5-.84.73-1.26.71-1.26,1.35-2.6,1.82-3.97,1.42-3.93,2.45-8.24,1.75-12.43-2.72,3.17-5.29,5.55-8.21,8.22-.4.37-.92.85-1.34,1.21-.2.16-.4.33-.6.49-2.13,1.71-4.32,3.29-6.6,4.69-.65.4-1.3.78-1.97,1.15l-5.88,2.5c-1.1.26-2.19.58-3.27.95-10.14,3.44-18.96,11.31-22.56,21.43-1.76-1.16-3.63-2.16-5.59-3,4.08-8.29,9.69-15.71,16.91-21.46,1.53-1.01,2.96-2.66,3.85-3.82.14-.17.28-.35.43-.53,1.63-2.07,2.97-4.38,4.02-6.82.54-1.25,1.01-2.53,1.39-3.83.54-1.83.93-3.69,1.16-5.54.05-.4.1-.8.13-1.2.1-1.06.14-2.12.08-3.16-.14-4.18-.79-8.56-3.01-12.19-1.34,3.95-2.84,7.12-4.55,10.69-.04.08-.08.17-.12.25-.21.45-.46.97-.67,1.37-.66,1.18-1.33,2.33-2.03,3.46-.84,1.35-1.72,2.65-2.65,3.91-1.21,1.65-2.52,3.22-3.95,4.69l.4-.44-2.46,2.17c-9.63,6.82-16.1,18.5-15.62,30.38-2.21-.45-4.5-.69-6.85-.69.03-.58.05-1.16.07-1.75.03-.55.05-1.26.1-1.8.5-5.01,1.42-9.87,3.19-14.48l-.2.55c.27-.58.44-1.05.59-1.45.12-.31.23-.58.37-.83,0,0,0,0,0-.01s0-.01.01-.02c0-.01.02-.02.02-.04,0,0,0,0,0,0,0,0,0,0,0,0h0c.12-.18.4-.61.4-.61,3.05-4.97,4.93-10.73,5.44-16.58.18-2.17.18-4.36-.03-6.52-.19-2.08-.57-4.14-1.15-6.15-.48-1.69-1.1-3.34-1.87-4.94-.06-.12-.12-.23-.17-.35-1.65-3.29-3.84-6.34-6.69-8.68-.04,1.38.08,2.81.05,4.14.03,1,.03,2,0,3-.02,1.53-.09,3.07-.21,4.59-.16,2.02-.41,4.03-.75,6.01-.37,2.22-.86,4.42-1.47,6.59-1.15,4.13-2.74,8.14-4.81,11.94-1,1.53-1.67,3.6-2.02,5-1.72,5.85-1.53,12.35.13,18.13.47,1.69,1.1,3.39,1.94,4.92v.03c-2.08.42-4.09,1.02-6.01,1.78-.19-.54-.39-1.09-.58-1.65-.19-.52-.42-1.19-.59-1.71-1.4-4.84-2.35-9.68-2.43-14.62l.09-1.99c.05-.21.14-.7.14-.7.89-5.23.64-10.7-.71-15.87-.54-2.11-1.27-4.17-2.18-6.14-.73-1.6-1.58-3.14-2.56-4.61-.94-1.43-1.99-2.79-3.16-4.06-.6-.67-1.24-1.31-1.91-1.93-2.83-2.55-6.09-4.68-9.74-5.82.48,1.29,1.12,2.58,1.58,3.82,1.03,2.4,1.93,4.84,2.69,7.31.55,1.79,1.03,3.59,1.43,5.41.36,1.62.66,3.25.89,4.88.39,2.72.6,5.45.61,8.19.01,2.23-.11,4.46-.37,6.69-.37,1.79-.21,3.98-.02,5.42.58,6.07,3.18,12.04,6.88,16.78.91,1.17,1.89,2.31,3,3.29l-.06,1.06c-1.7,1.18-3.29,2.5-4.75,3.96-.39-.43-.78-.85-1.19-1.3-.37-.4-.85-.92-1.21-1.34-3.07-3.76-5.78-7.69-7.76-12.02l-.93-2.33-.14-.7c-.84-3.49-2.2-6.89-4.01-10.03-1.48-2.58-3.26-4.98-5.3-7.13-.7-.74-1.44-1.46-2.2-2.14-1.83-1.63-3.81-3.07-5.94-4.27-1.61-.9-3.29-1.68-5.03-2.29-2.93-1.01-6-1.64-9.1-1.64-.71,0-1.43.03-2.14.1.95,1,2.04,1.94,2.96,2.9,2.48,2.37,4.8,4.9,6.91,7.58,1.8,2.28,3.45,4.67,4.93,7.16.34.57.67,1.14.99,1.73,1.98,3.59,3.6,7.38,4.78,11.34.04.19.08.38.13.56.44,1.63,1.31,3.3,1.98,4.42,2.92,5.35,7.65,9.82,12.92,12.73,1.29.72,2.64,1.37,4.04,1.85l.36,1c-.96,1.52-1.8,3.11-2.52,4.78-.52-.25-1.05-.5-1.58-.76-.49-.24-1.14-.54-1.62-.79-4.41-2.43-8.51-5.18-12.06-8.62l.44.4c-.87-.96-1.27-1.19-1.7-1.78l-.09-.1c-.13-.19-.38-.58-.38-.58-.92-1.31-1.93-2.54-3.02-3.72-2.78-3.01-6.07-5.59-9.68-7.56-.07-.04-.13-.08-.2-.11-2.95-1.59-6.1-2.79-9.34-3.49-2.27-.5-4.59-.77-6.92-.77-.45,0-.9.01-1.35.03-3.8.19-7.61,1-11,2.76,1.25.57,2.61,1.04,3.83,1.58,4.15,1.67,8.15,3.68,11.89,6.06,1.61,1.02,3.17,2.11,4.68,3.27,1.4,1.08,2.75,2.21,4.05,3.4,2.18,2,4.21,4.17,6.07,6.51.41.63.93,1.24,1.49,1.8.79.81,1.65,1.52,2.33,2.04,4.7,3.89,10.76,6.27,16.73,7,1.11.14,2.25.23,3.37.23.33,0,.66,0,.99-.03.31,0,.63-.02.95-.04-.47,2.26-.71,4.59-.72,6.98-.58-.03-1.16-.05-1.76-.07-.55-.03-1.25-.05-1.8-.1-5.01-.5-9.86-1.42-14.48-3.18l-1.8-.81c-.07-.05-.18-.12-.29-.19-.16-.11-.31-.21-.31-.21-3.14-1.93-6.59-3.38-10.18-4.32-3.12-.82-6.34-1.24-9.56-1.24-.72,0-1.44.02-2.15.07-1.36.08-2.72.24-4.06.48-2.84.5-5.62,1.38-8.24,2.63-.65.32-1.29.66-1.91,1.01-2.69,1.53-5.15,3.46-7.11,5.85h0c1.22.03,2.48-.05,3.68-.05.16,0,.31,0,.46,0,.57-.01,1.15-.02,1.72-.02.42,0,.83,0,1.25.01,3.41.06,6.82.35,10.16.88,1.37.22,2.72.49,4.06.79,4.03.91,7.95,2.21,11.71,3.95,1.1.5,2.17,1.04,3.24,1.62,1.52,1.01,3.59,1.67,4.99,2.02,2.79.82,5.72,1.21,8.66,1.21,3.23,0,6.45-.47,9.47-1.34,1.42-.4,2.84-.9,4.16-1.55l.96.45c.4,1.77.94,3.5,1.6,5.17-.54.19-1.09.39-1.65.58-.51.19-1.18.43-1.71.59-4.84,1.4-9.68,2.36-14.62,2.43l-1.95-.08c-.19-.04-.74-.15-.74-.15-2.06-.35-4.14-.52-6.25-.52s-4.14.17-6.19.5c-4.1.67-8.09,2-11.71,3.98-1.41.76-2.77,1.63-4.06,2.59-1.59,1.18-3.07,2.51-4.41,3.98-2.5,2.77-4.58,5.95-5.74,9.5v.21c1.26-.48,2.53-1.1,3.74-1.56,2.1-.9,4.25-1.71,6.42-2.41,1.35-.43,2.7-.82,4.06-1.17,3.85-1,7.77-1.66,11.71-1.91,1.3-.09,2.6-.13,3.91-.13,2.13,0,4.27.12,6.4.37.79.16,1.66.22,2.5.22,1.07,0,2.11-.1,2.92-.2,6.07-.58,12.04-3.18,16.78-6.87,1.17-.9,2.3-1.89,3.29-2.99l1.06.06c1.18,1.7,2.5,3.28,3.95,4.74-.42.39-.85.79-1.29,1.19-.4.37-.92.85-1.34,1.21-3.9,3.18-7.98,5.97-12.5,7.98l-1.88.71c-.22.04-.68.13-.68.13-9.44,2.26-18.13,8.37-23.13,16.69-1.1,1.83-2.02,3.77-2.73,5.8-1.24,3.61-1.91,7.44-1.54,11.24,1-.95,1.94-2.04,2.9-2.97.45-.47.91-.94,1.38-1.4,7.47-7.42,16.39-13.21,26.44-16.2,1.79-.37,3.74-1.37,4.98-2.11,5.35-2.92,9.83-7.65,12.73-12.91.72-1.29,1.38-2.65,1.84-4.05l1-.36c1.52.96,3.12,1.8,4.79,2.52-.25.52-.5,1.04-.75,1.58-.23.49-.54,1.13-.79,1.62-2.43,4.41-5.18,8.52-8.62,12.06l-1.5,1.38-.56.36c-9.66,6.84-16.15,18.6-15.62,30.51.03.56.07,1.12.13,1.69.33,3.24,1.13,6.43,2.64,9.32.57-1.25,1.04-2.62,1.58-3.82.75-1.86,1.57-3.7,2.46-5.49,4.06-8.19,9.63-15.52,16.79-21.21,1.53-1.01,2.96-2.66,3.84-3.82,3.89-4.7,6.27-10.76,7.01-16.73.19-1.44.28-2.92.21-4.36-.02-.31-.03-.62-.05-.94,2.29.47,4.65.72,7.08.72h.14c-.49,9.24-2.73,18.28-7.14,26.41-1,1.52-1.67,3.59-2.02,5-1.41,4.79-1.54,10.02-.62,14.93.2,1.08.46,2.15.76,3.2.39,1.4.88,2.79,1.52,4.1.45.96.94,1.93,1.47,2.86,1.55,2.75,3.5,5.32,6.08,7.16-.2-2.54-.22-4.85-.17-7.16.04-1.46.1-2.93.16-4.46.03-.54.05-1.25.1-1.8.13-1.31.29-2.61.49-3.9.55-3.64,1.4-7.17,2.7-10.58l.83-1.84c.13-.19.38-.57.38-.57,6.18-10.05,7.53-23.35,2.44-34.08,2.1-.43,4.12-1.05,6.07-1.84,2.97,8.75,4.27,17.96,3.21,27.13-.37,1.8-.21,3.98-.02,5.42.56,5.89,3.03,11.69,6.56,16.36.1.14.21.28.31.42.89,1.15,1.86,2.27,2.94,3.24,3.05,2.85,6.62,5.5,10.75,6.5-1.75-3.53-2.9-6.67-4.12-10.15-.07-.21-.14-.42-.22-.62-.19-.52-.43-1.19-.59-1.71-1.4-4.84-2.35-9.68-2.43-14.62l.08-1.97c.05-.21.15-.72.15-.72,1.99-11.63-1.71-24.47-10.43-32.53,1.98-1.32,3.82-2.83,5.49-4.51,6.18,6.87,10.98,14.84,13.62,23.69.37,1.79,1.37,3.74,2.11,4.99,2.92,5.35,7.65,9.83,12.91,12.73,1.27.71,2.6,1.36,3.97,1.82,2.6.94,5.37,1.71,8.16,1.91.49.04.98.06,1.47.06.93,0,1.87-.07,2.8-.22-1.57-1.35-2.96-2.66-4.27-4-1.34-1.36-2.61-2.74-3.96-4.21-.37-.4-.85-.92-1.21-1.35-3.19-3.9-5.97-7.97-7.99-12.49l-.7-1.86c-.05-.21-.14-.7-.14-.7-2.74-11.48-11.19-21.84-22.38-25.82,1.16-1.76,2.17-3.63,3-5.59,8.29,4.08,15.71,9.68,21.46,16.91,1.01,1.53,2.66,2.96,3.82,3.84,2.41,1.99,5.18,3.59,8.1,4.77,2.78,1.13,5.72,1.88,8.63,2.24,1.02.13,2.06.22,3.09.23.1,0,.19,0,.28,0,.34,0,.67-.01,1-.03.92-.04,1.85-.09,2.78-.18,3.29-.33,6.58-1.1,9.41-2.82-3.47-1.18-6.34-2.48-9.41-3.94-.42-.2-.85-.41-1.28-.61-.49-.23-1.13-.54-1.62-.79-.39-.21-.77-.43-1.15-.65-3.97-2.28-7.68-4.84-10.91-7.97l.44.4c-.5-.55-.9-.92-1.24-1.24-.24-.24-.45-.45-.63-.7,0,0,.03.02.06.05-.12-.19-.37-.56-.37-.56-6.58-9.3-17.71-15.66-29.16-15.66-.41,0-.82.01-1.22.03.45-2.25.69-4.57.69-6.94,0-.05,0-.09,0-.14,9.24.49,18.28,2.74,26.41,7.14,1.26.83,2.9,1.43,4.22,1.81.27.08.54.14.78.21,2.78.82,5.72,1.21,8.66,1.21.76,0,1.51-.03,2.27-.08,1.36-.09,2.72-.26,4.05-.51,1.07-.2,2.12-.45,3.15-.75,1.4-.39,2.79-.88,4.09-1.52.98-.46,1.96-.96,2.92-1.5,2.74-1.55,5.29-3.49,7.12-6.05-1.83.14-3.54.2-5.21.2-.64,0-1.27-.01-1.9-.02-1.48-.03-2.96-.1-4.51-.16-.55-.03-1.26-.05-1.8-.1-1.3-.13-2.58-.29-3.85-.48-1.37-.2-2.72-.45-4.05-.75-2.24-.5-4.43-1.14-6.58-1.96l-1.83-.83c-.07-.05-.16-.12-.26-.18-.16-.11-.31-.21-.31-.21-.89-.54-1.8-1.05-2.73-1.52-5.24-2.63-11.14-4.04-17.01-4.04-4.94,0-9.86,1.01-14.33,3.13-.43-2.1-1.06-4.13-1.84-6.07,6.72-2.29,13.71-3.58,20.74-3.58.51,0,1.03.01,1.54.02,1.62.04,3.23.16,4.85.34.1.02.2.04.31.06.03,0,.06.01.09.02l.09.02c.65.1,1.34.14,2.01.14.83,0,1.65-.06,2.35-.14.02,0,.05,0,.07-.01.03,0,.05,0,.07,0,.15-.02.29-.04.44-.06.91-.09,1.82-.22,2.73-.4,3.36-.65,6.63-1.88,9.62-3.55,1.56-.87,3.05-1.85,4.43-2.93.67-.51,1.33-1.06,1.95-1.64.45-.42.88-.85,1.28-1.3,2.85-3.05,5.5-6.61,6.5-10.74-3.74,1.84-7.05,3.03-10.78,4.34-.51.18-1.18.42-1.71.59-1.32.38-2.63.73-3.95,1.03-2.48.58-4.96,1.01-7.47,1.23-1.54.14-3.1.14-4.64.03h0Z"/>
      <path class="st0" d="M479.31,191.19s-.05-.02-.07-.02v4.93c.19-.11.39-.22.57-.34l-.51-4.57Z"/>
    </g>
    <path class="st1" d="M513.84,285.64h-252.31V98h20.56C292.12,47.55,328.03,13.86,386.34.38l1.64-.38,1.64.38c57.94,13.4,93.66,47.09,103.67,97.62h20.56v187.64ZM276.07,271.11h223.25V112.53h-18.37l-.94-6.17c-7.21-47.11-39.02-78.7-92.03-91.44-53.39,12.83-85.39,44.42-92.59,91.44l-.94,6.17h-18.37v158.58Z"/>
  </g>
</svg>